<svg width="277.000000" height="107.000000" viewBox="0 0 277 107" fill="none" xmlns="http://www.w3.org/2000/svg" xmlns:xlink="http://www.w3.org/1999/xlink">
	<desc>
			Created with Pixso.
	</desc>
	<defs>
		<filter id="filter_2_384_dd" x="0.000000" y="0.000000" width="277.000000" height="107.000000" filterUnits="userSpaceOnUse" color-interpolation-filters="sRGB">
			<feFlood flood-opacity="0" result="BackgroundImageFix"/>
			<feColorMatrix in="SourceAlpha" type="matrix" values="0 0 0 0 0 0 0 0 0 0 0 0 0 0 0 0 0 0 127 0" result="hardAlpha"/>
			<feOffset dx="1" dy="0"/>
			<feGaussianBlur stdDeviation="6"/>
			<feComposite in2="hardAlpha" operator="out" k2="-1" k3="1"/>
			<feColorMatrix type="matrix" values="0 0 0 0 0 0 0 0 0 0 0 0 0 0 0 0 0 0 0.2 0"/>
			<feBlend mode="normal" in2="BackgroundImageFix" result="effect_dropShadow_1"/>
			<feBlend mode="normal" in="SourceGraphic" in2="effect_dropShadow_1" result="shape"/>
		</filter>
		<clipPath id="clip2_384">
			<rect id="IMAGE" rx="9.000000" width="239.000000" height="69.000000" transform="translate(18.000000 19.000000)" fill="white" fill-opacity="0"/>
		</clipPath>
	</defs>
	<g filter="url(#filter_2_384_dd)">
		<rect id="IMAGE" rx="9.000000" width="239.000000" height="69.000000" transform="translate(18.000000 19.000000)" fill="#CDA274" fill-opacity="1.000000"/>
		<g clip-path="url(#clip2_384)">
			<path id="Vector" d="M218.058 56.3862L241.96 54" stroke="#292F36" stroke-opacity="1.000000" stroke-width="2.000000" stroke-linejoin="round" stroke-linecap="square"/>
			<path id="Vector" d="M232.217 37L243 54.8203L232 73" stroke="#292F36" stroke-opacity="1.000000" stroke-width="2.000000" stroke-linejoin="round" stroke-linecap="square"/>
		</g>
	</g>
	<rect id="IMAGE" rx="9.000000" width="239.000000" height="69.000000" transform="translate(18.000000 19.000000)" stroke="#CDA274" stroke-opacity="1.000000" stroke-width="2.000000"/>
	<path id="Connect With us" d="M58.2814 52.455C58.2814 51.471 58.4974 50.613 58.9294 49.881C59.3734 49.137 59.9494 48.555 60.6574 48.135C61.3654 47.715 62.1334 47.505 62.9614 47.505C63.5614 47.505 64.1074 47.583 64.5994 47.739C65.1034 47.895 65.5594 48.117 65.9674 48.405C66.3754 48.681 66.7234 49.005 67.0114 49.377L67.0114 47.361C66.4834 46.893 65.9074 46.545 65.2834 46.317C64.6594 46.089 63.8854 45.975 62.9614 45.975C62.0854 45.975 61.2634 46.137 60.4954 46.461C59.7394 46.773 59.0734 47.223 58.4974 47.811C57.9214 48.387 57.4714 49.071 57.1474 49.863C56.8234 50.655 56.6614 51.519 56.6614 52.455C56.6614 53.391 56.8234 54.255 57.1474 55.047C57.4714 55.839 57.9214 56.529 58.4974 57.117C59.0734 57.693 59.7394 58.143 60.4954 58.467C61.2634 58.779 62.0854 58.935 62.9614 58.935C63.8854 58.935 64.6594 58.821 65.2834 58.593C65.9074 58.365 66.4834 58.017 67.0114 57.549L67.0114 55.533C66.7234 55.905 66.3754 56.235 65.9674 56.523C65.5594 56.799 65.1034 57.015 64.5994 57.171C64.1074 57.327 63.5614 57.405 62.9614 57.405C62.1334 57.405 61.3654 57.195 60.6574 56.775C59.9494 56.355 59.3734 55.773 58.9294 55.029C58.4974 54.285 58.2814 53.427 58.2814 52.455ZM69.1137 54.615C69.1137 55.443 69.2997 56.187 69.6717 56.847C70.0557 57.495 70.5717 58.005 71.2197 58.377C71.8677 58.749 72.5937 58.935 73.3977 58.935C74.2137 58.935 74.9397 58.749 75.5757 58.377C76.2237 58.005 76.7337 57.495 77.1057 56.847C77.4897 56.187 77.6817 55.443 77.6817 54.615C77.6817 53.775 77.4897 53.031 77.1057 52.383C76.7337 51.735 76.2237 51.225 75.5757 50.853C74.9397 50.481 74.2137 50.295 73.3977 50.295C72.5937 50.295 71.8677 50.481 71.2197 50.853C70.5717 51.225 70.0557 51.735 69.6717 52.383C69.2997 53.031 69.1137 53.775 69.1137 54.615ZM70.5717 54.615C70.5717 54.039 70.6917 53.529 70.9317 53.085C71.1837 52.629 71.5197 52.275 71.9397 52.023C72.3717 51.771 72.8577 51.645 73.3977 51.645C73.9377 51.645 74.4177 51.771 74.8377 52.023C75.2697 52.275 75.6057 52.629 75.8457 53.085C76.0977 53.529 76.2237 54.039 76.2237 54.615C76.2237 55.191 76.0977 55.701 75.8457 56.145C75.6057 56.589 75.2697 56.943 74.8377 57.207C74.4177 57.459 73.9377 57.585 73.3977 57.585C72.8577 57.585 72.3717 57.459 71.9397 57.207C71.5197 56.943 71.1837 56.589 70.9317 56.145C70.6917 55.701 70.5717 55.191 70.5717 54.615ZM85.1899 53.715L85.1899 58.755L86.6299 58.755L86.6299 53.535C86.6299 52.539 86.3719 51.753 85.8559 51.177C85.3519 50.589 84.6619 50.295 83.7859 50.295C83.2459 50.295 82.7659 50.415 82.3459 50.655C81.9379 50.895 81.5959 51.267 81.3199 51.771L81.3199 50.475L79.8799 50.475L79.8799 58.755L81.3199 58.755L81.3199 53.715C81.3199 53.307 81.4039 52.947 81.5719 52.635C81.7519 52.323 81.9979 52.083 82.3099 51.915C82.6339 51.735 83.0059 51.645 83.4259 51.645C84.0019 51.645 84.4399 51.819 84.7399 52.167C85.0399 52.515 85.1899 53.031 85.1899 53.715ZM94.8669 53.715L94.8669 58.755L96.3069 58.755L96.3069 53.535C96.3069 52.539 96.0489 51.753 95.5329 51.177C95.0289 50.589 94.3389 50.295 93.4629 50.295C92.9229 50.295 92.4429 50.415 92.0229 50.655C91.6149 50.895 91.2729 51.267 90.9969 51.771L90.9969 50.475L89.5569 50.475L89.5569 58.755L90.9969 58.755L90.9969 53.715C90.9969 53.307 91.0809 52.947 91.2489 52.635C91.4289 52.323 91.6749 52.083 91.9869 51.915C92.3109 51.735 92.6829 51.645 93.1029 51.645C93.6789 51.645 94.1169 51.819 94.4169 52.167C94.7169 52.515 94.8669 53.031 94.8669 53.715ZM102.438 58.935C103.326 58.935 104.094 58.761 104.742 58.413C105.402 58.053 105.948 57.525 106.38 56.829L105.21 56.091C104.91 56.595 104.544 56.973 104.112 57.225C103.68 57.465 103.182 57.585 102.618 57.585C102.054 57.585 101.574 57.465 101.178 57.225C100.782 56.985 100.482 56.637 100.278 56.181C100.074 55.725 99.9719 55.173 99.9719 54.525C99.9839 53.889 100.092 53.355 100.296 52.923C100.512 52.479 100.812 52.143 101.196 51.915C101.592 51.675 102.066 51.555 102.618 51.555C103.086 51.555 103.494 51.657 103.842 51.861C104.19 52.065 104.46 52.347 104.652 52.707C104.856 53.067 104.958 53.493 104.958 53.985C104.958 54.069 104.94 54.177 104.904 54.309C104.868 54.429 104.832 54.519 104.796 54.579L105.372 53.751L99.4319 53.751L99.4319 54.975L106.506 54.975C106.506 54.951 106.506 54.897 106.506 54.813C106.518 54.717 106.524 54.627 106.524 54.543C106.524 53.667 106.368 52.911 106.056 52.275C105.744 51.639 105.294 51.153 104.706 50.817C104.13 50.469 103.434 50.295 102.618 50.295C101.802 50.295 101.082 50.475 100.458 50.835C99.8459 51.195 99.3659 51.699 99.0179 52.347C98.6819 52.995 98.5139 53.751 98.5139 54.615C98.5139 55.467 98.6759 56.217 98.9999 56.865C99.3359 57.513 99.7979 58.023 100.386 58.395C100.986 58.755 101.67 58.935 102.438 58.935ZM109.366 54.615C109.366 54.039 109.486 53.529 109.726 53.085C109.978 52.629 110.314 52.275 110.734 52.023C111.166 51.771 111.652 51.645 112.192 51.645C112.636 51.645 113.05 51.717 113.434 51.861C113.83 51.993 114.172 52.173 114.46 52.401C114.748 52.629 114.952 52.881 115.072 53.157L115.072 51.357C114.784 51.021 114.37 50.763 113.83 50.583C113.302 50.391 112.756 50.295 112.192 50.295C111.388 50.295 110.662 50.481 110.014 50.853C109.366 51.225 108.85 51.735 108.466 52.383C108.094 53.031 107.908 53.775 107.908 54.615C107.908 55.443 108.094 56.187 108.466 56.847C108.85 57.495 109.366 58.005 110.014 58.377C110.662 58.749 111.388 58.935 112.192 58.935C112.756 58.935 113.302 58.845 113.83 58.665C114.37 58.473 114.784 58.209 115.072 57.873L115.072 56.073C114.952 56.337 114.748 56.589 114.46 56.829C114.172 57.057 113.83 57.243 113.434 57.387C113.05 57.519 112.636 57.585 112.192 57.585C111.652 57.585 111.166 57.459 110.734 57.207C110.314 56.943 109.978 56.589 109.726 56.145C109.486 55.701 109.366 55.191 109.366 54.615ZM116.273 50.475L116.273 51.825L120.413 51.825L120.413 50.475L116.273 50.475ZM117.623 47.595L117.623 58.755L119.063 58.755L119.063 47.595L117.623 47.595ZM138.998 55.425L135.254 45.525L131.582 55.425L128.234 46.155L126.524 46.155L131.474 59.385L135.254 49.593L139.034 59.385L143.984 46.155L142.274 46.155L138.998 55.425ZM145.738 47.055C145.738 47.319 145.834 47.553 146.026 47.757C146.23 47.949 146.464 48.045 146.728 48.045C147.004 48.045 147.238 47.949 147.43 47.757C147.622 47.553 147.718 47.319 147.718 47.055C147.718 46.779 147.622 46.545 147.43 46.353C147.238 46.161 147.004 46.065 146.728 46.065C146.464 46.065 146.23 46.161 146.026 46.353C145.834 46.545 145.738 46.779 145.738 47.055ZM146.008 50.475L146.008 58.755L147.448 58.755L147.448 50.475L146.008 50.475ZM149.374 50.475L149.374 51.825L153.514 51.825L153.514 50.475L149.374 50.475ZM150.724 47.595L150.724 58.755L152.164 58.755L152.164 47.595L150.724 47.595ZM156.618 44.715L155.178 44.715L155.178 58.755L156.618 58.755L156.618 44.715ZM160.488 53.715L160.488 58.755L161.928 58.755L161.928 53.535C161.928 52.815 161.808 52.215 161.568 51.735C161.34 51.255 161.01 50.895 160.578 50.655C160.158 50.415 159.66 50.295 159.084 50.295C158.508 50.295 157.998 50.445 157.554 50.745C157.122 51.045 156.78 51.453 156.528 51.969C156.276 52.473 156.15 53.055 156.15 53.715L156.618 53.715C156.618 53.319 156.702 52.965 156.87 52.653C157.05 52.341 157.296 52.095 157.608 51.915C157.932 51.735 158.304 51.645 158.724 51.645C159.312 51.645 159.75 51.819 160.038 52.167C160.338 52.515 160.488 53.031 160.488 53.715ZM171.912 55.515L171.912 50.475L170.472 50.475L170.472 55.695C170.472 56.679 170.73 57.465 171.246 58.053C171.762 58.641 172.452 58.935 173.316 58.935C173.868 58.935 174.348 58.815 174.756 58.575C175.164 58.323 175.506 57.951 175.782 57.459L175.782 58.755L177.222 58.755L177.222 50.475L175.782 50.475L175.782 55.515C175.782 55.923 175.692 56.283 175.512 56.595C175.344 56.907 175.098 57.153 174.774 57.333C174.462 57.501 174.096 57.585 173.676 57.585C173.1 57.585 172.662 57.405 172.362 57.045C172.062 56.685 171.912 56.175 171.912 55.515ZM180.491 56.217L179.357 56.919C179.513 57.243 179.741 57.561 180.041 57.873C180.353 58.185 180.731 58.443 181.175 58.647C181.619 58.839 182.117 58.935 182.669 58.935C183.521 58.935 184.205 58.695 184.721 58.215C185.249 57.735 185.513 57.135 185.513 56.415C185.513 55.923 185.393 55.521 185.153 55.209C184.925 54.897 184.613 54.633 184.217 54.417C183.821 54.189 183.383 53.979 182.903 53.787C182.615 53.667 182.339 53.541 182.075 53.409C181.811 53.277 181.595 53.127 181.427 52.959C181.259 52.791 181.175 52.599 181.175 52.383C181.175 52.107 181.283 51.903 181.499 51.771C181.715 51.639 181.973 51.573 182.273 51.573C182.705 51.573 183.089 51.675 183.425 51.879C183.773 52.083 184.061 52.341 184.289 52.653L185.441 51.915C185.273 51.603 185.039 51.327 184.739 51.087C184.439 50.847 184.091 50.655 183.695 50.511C183.311 50.367 182.897 50.295 182.453 50.295C182.009 50.295 181.577 50.373 181.157 50.529C180.749 50.685 180.413 50.925 180.149 51.249C179.897 51.573 179.771 51.981 179.771 52.473C179.771 52.953 179.891 53.355 180.131 53.679C180.383 53.991 180.689 54.249 181.049 54.453C181.421 54.645 181.787 54.813 182.147 54.957C182.471 55.077 182.777 55.209 183.065 55.353C183.353 55.485 183.587 55.653 183.767 55.857C183.959 56.049 184.055 56.289 184.055 56.577C184.055 56.901 183.935 57.159 183.695 57.351C183.467 57.531 183.149 57.621 182.741 57.621C182.405 57.621 182.093 57.561 181.805 57.441C181.529 57.309 181.283 57.135 181.067 56.919C180.851 56.703 180.659 56.469 180.491 56.217Z" fill="#FFFFFF" fill-opacity="1.000000" fill-rule="evenodd"/>
</svg>
